# xmcd
#
# Track frame offsets:
#	150
#	17321
#	32703
#	46206
#	63214
#	83224
#	99682
#	113699
#	127571
#	139728
#	153570
#	168286
#	187073
#	203313
#	225100
#	239395
#	253995
#	270372
#	287637
#	301503
#	314338
#
# Disc length: 4450 seconds
#
# Revision: 1
# Processed by: cddbd v1.5.2PL0 Copyright (c) Steve Scherf et al.
# Submitted via: audiograbber 1.83.01
#
DISCID=00116015
DTITLE=REGINALDO ROSSI - AS MAIS TOCANTES - VOL. 2
DYEAR=1900
DGENRE=BREGA
TTITLE0=FÉRIAS EM ITAMARACÁ
TTITLE1=MORRENDO DE PAIXÃO
TTITLE2=REALMENTE UMA MULHER
TTITLE3=NÃO CONSIGO TEESQUECER
TTITLE4=DOCE JUVENTUDE
TTITLE5=NOSSO CASO DE AMOR
TTITLE6=MAMORADINHA DE UM AMIGO MEU
TTITLE7=TODA QUENTE
TTITLE8=MINHA JEZEBEL
TTITLE9=NASCI PARA TE ADORAR
TTITLE10=NÃO ESTÁ SENDO FÁCIL VIVER SEM VOCÊ
TTITLE11=TRISTEZA E SOLIDÃO
TTITLE12=O AMOR QUE PERDI
TTITLE13=EU ACHO QUE VOU CHORAR
TTITLE14=SEM ME DIZER ADEUS
TTITLE15=QUE BOM SERIA
TTITLE16=EU NÃO PRESTO, MAS TE AMO
TTITLE17=VOU BOTAR PRA QUEBRAR
TTITLE18=TEU MELHOR AMIGO
TTITLE19=SONHANDO
TTITLE20=MESMO ASSIM EU TE AMO
EXTD=
EXTT0=
EXTT1=
EXTT2=
EXTT3=
EXTT4=
EXTT5=
EXTT6=
EXTT7=
EXTT8=
EXTT9=
EXTT10=
EXTT11=
EXTT12=
EXTT13=
EXTT14=
EXTT15=
EXTT16=
EXTT17=
EXTT18=
EXTT19=
EXTT20=
PLAYORDER=
